<?xml version="1.0" encoding="UTF-8" standalone="no"?>
<svg
   height="128"
   width="128"
   version="1.1"
   id="svg7"
   sodipodi:docname="godot.svg"
   inkscape:version="1.3.2 (091e20ef0f, 2023-11-25, custom)"
   xmlns:inkscape="http://www.inkscape.org/namespaces/inkscape"
   xmlns:sodipodi="http://sodipodi.sourceforge.net/DTD/sodipodi-0.dtd"
   xmlns="http://www.w3.org/2000/svg"
   xmlns:svg="http://www.w3.org/2000/svg">
  <defs
     id="defs7" />
  <sodipodi:namedview
     id="namedview7"
     pagecolor="#ffffff"
     bordercolor="#666666"
     borderopacity="1.0"
     inkscape:showpageshadow="2"
     inkscape:pageopacity="0.0"
     inkscape:pagecheckerboard="0"
     inkscape:deskcolor="#d1d1d1"
     inkscape:zoom="10.921875"
     inkscape:cx="63.95422"
     inkscape:cy="64"
     inkscape:window-width="3200"
     inkscape:window-height="1706"
     inkscape:window-x="0"
     inkscape:window-y="0"
     inkscape:window-maximized="1"
     inkscape:current-layer="svg7" />
  <g
     transform="scale(.101) translate(122 122)"
     id="g7">
    <g
       fill="#fff"
       id="g4">
      <path
         d="M105 673v33q407 354 814 0v-33z"
         id="path1" />
      <path
         d="m105 673 152 14q12 1 15 14l4 67 132 10 8-61q2-11 15-15h162q13 4 15 15l8 61 132-10 4-67q3-13 15-14l152-14V427q30-39 56-81-35-59-83-108-43 20-82 47-40-37-88-64 7-51 8-102-59-28-123-42-26 43-46 89-49-7-98 0-20-46-46-89-64 14-123 42 1 51 8 102-48 27-88 64-39-27-82-47-48 49-83 108 26 42 56 81zm0 33v39c0 276 813 276 814 0v-39l-134 12-5 69q-2 10-14 13l-162 11q-12 0-16-11l-10-65H446l-10 65q-4 11-16 11l-162-11q-12-3-14-13l-5-69z"
         fill="#478cbf"
         id="path2" />
      <path
         d="M483 600c0 34 58 34 58 0v-86c0-34-58-34-58 0z"
         id="path3" />
      <circle
         cx="725"
         cy="526"
         r="90"
         id="circle3" />
      <circle
         cx="299"
         cy="526"
         r="90"
         id="circle4" />
    </g>
    <g
       fill="#414042"
       id="g6">
      <circle
         cx="307"
         cy="532"
         r="60"
         id="circle5" />
      <circle
         cx="717"
         cy="532"
         r="60"
         id="circle6" />
    </g>
  </g>
</svg>
